<?xml version="1.0" encoding="UTF-8"?>
<svg width="1200pt" height="1200pt" version="1.1" viewBox="0 0 1200 1200" xmlns="http://www.w3.org/2000/svg">
 <path d="m1071.9 347.89h-226.56v-95.398c0-37.633-30.504-68.137-68.137-68.137h-354.31c-37.645 0-68.137 30.504-68.137 68.137v95.398h-226.56c-37.645 0-68.148 30.504-68.148 68.137v531.48c0 37.645 30.504 68.137 68.137 68.137h943.71c37.645 0 68.148-30.492 68.148-68.137v-531.48c0-37.633-30.504-68.137-68.148-68.137zm-640.89-42.945c0-28.02 9.0859-50.746 37.117-50.746h263.86c28.02 0 37.117 22.715 37.117 50.746v42.949l-338.09-0.003906z"/>
</svg>
